<svg xmlns="http://www.w3.org/2000/svg" width="18" height="18" viewBox="0 0 14 14">
    <path fill="#F0F0F0" d="M0 0h14v9.334H0V0z"/>
    <path fill="#D80E2A" d="M7.875 0h-1.75v3.792H0v1.75h6.125v3.792h1.75V5.542H14v-1.75H7.875V0z"/>
    <path fill="#2055A3"
          d="M10.768 6.29L14 8.086V6.29h-3.232zm-2.247 0L14 9.334v-.861L10.071 6.29h-1.55zm4.02 3.044L8.521 7.1v2.234h4.02z"/>
    <path fill="#F0F0F0" d="M8.521 6.29L14 9.334v-.861L10.071 6.29h-1.55z"/>
    <path fill="#D80E2A" d="M8.521 6.29L14 9.334v-.861L10.071 6.29h-1.55z"/>
    <path fill="#2055A3" d="M2.47 6.29L0 7.663V6.29h2.47zm3.008.387v2.657H.697l4.781-2.657z"/>
    <path fill="#D80E2A" d="M3.929 6.29L0 8.473v.861L5.478 6.29H3.929z"/>
    <path fill="#2055A3"
          d="M3.232 3.043L0 1.248v1.796h3.232zm2.246 0L0 0v.86l3.929 2.183h1.549zM1.459 0l4.019 2.233V0H1.459z"/>
    <path fill="#F0F0F0" d="M5.478 3.043L0 0v.86l3.929 2.183h1.549z"/>
    <path fill="#D80E2A" d="M5.478 3.043L0 0v.86l3.929 2.183h1.549z"/>
    <path fill="#2055A3" d="M11.529 3.043L14 1.671v1.373h-2.471zm-3.008-.387V0h4.781L8.521 2.656z"/>
    <path fill="#D80E2A" d="M10.071 3.043L14 .86V0L8.521 3.043h1.55z"/>
</svg>